<svg width="15" height="15" viewBox="0 0 15 15" fill="none" xmlns="http://www.w3.org/2000/svg">
<path d="M14.0691 0.17292C13.989 0.0931639 13.8877 0.0379435 13.7773 0.0137518C13.6669 -0.0104399 13.5518 -0.00259712 13.4457 0.036358L0.383178 4.78636C0.270525 4.82909 0.173537 4.90508 0.105096 5.00424C0.0366549 5.10339 0 5.22103 0 5.34151C0 5.462 0.0366549 5.57963 0.105096 5.67879C0.173537 5.77795 0.270525 5.85394 0.383178 5.89667L5.48349 7.93323L9.24787 4.15698L10.0851 4.99417L6.30287 8.77636L8.34537 13.8767C8.38936 13.9871 8.46552 14.0819 8.56398 14.1486C8.66243 14.2153 8.77864 14.2508 8.89755 14.2507C9.01754 14.2483 9.13397 14.2095 9.23148 14.1395C9.329 14.0696 9.40302 13.9717 9.4438 13.8589L14.1938 0.796358C14.2343 0.69131 14.244 0.576926 14.2219 0.466544C14.1999 0.356162 14.1469 0.25433 14.0691 0.17292Z" fill="white"/>
</svg>
